ISO-10303-21;
HEADER;
FILE_DESCRIPTION(('ViewDefinition [CoordinationView_V2.0]'),'2;1');
FILE_NAME('m601-dajoong-bim.ifc','2026-07-26T12:00:00',('BuildCrew'),('BuildCrew'),'Dajoong Spatial Compiler + BuildCrew BIM Engine','BuildCrew','');
FILE_SCHEMA(('IFC4'));
ENDSEC;
DATA;
#1=IFCPERSON($,'BuildCrew',$,$,$,$,$,$);
#2=IFCORGANIZATION($,'BuildCrew',$,$,$);
#3=IFCPERSONANDORGANIZATION(#1,#2,$);
#4=IFCAPPLICATION(#2,'0.2.0','BuildCrew BIM Engine','BUILDCREW');
#5=IFCOWNERHISTORY(#3,#4,$,.ADDED.,$,$,$,0);
#6=IFCDIRECTION((1.,0.,0.));
#7=IFCDIRECTION((0.,1.,0.));
#8=IFCDIRECTION((0.,0.,1.));
#9=IFCCARTESIANPOINT((0.,0.,0.));
#10=IFCAXIS2PLACEMENT3D(#9,#8,#6);
#11=IFCGEOMETRICREPRESENTATIONCONTEXT($,'Model',3,1.E-5,#10,$);
#12=IFCSIUNIT(*,.LENGTHUNIT.,$,.METRE.);
#13=IFCUNITASSIGNMENT((#12));
#14=IFCPROJECT('24WlUSdoT5uP3xFh56hHkj',#5,'BC-2026-0142',$,$,$,$,(#11),#13);
#15=IFCLOCALPLACEMENT($,#10);
#16=IFCSITE('02Lzg2eMP1V8TjtvTMK1p_',#5,'Mission Bay Data Center',$,$,#15,$,$,.ELEMENT.,$,$,$,$,$);
#17=IFCBUILDING('2PY0oQPFP9n91LNeJlnLSp',#5,'Mission Bay Data Center',$,$,#15,$,$,.ELEMENT.,$,$,$);
#18=IFCBUILDINGSTOREY('1nONnLeX50lwGK2BY$7pP9',#5,'Mechanical Level',$,$,#15,$,$,.ELEMENT.,0.);
#19=IFCRELAGGREGATES('0Wz1CdSYH9NOMPzA0CNDj5',#5,$,$,#14,(#16));
#20=IFCRELAGGREGATES('30Yu9XbK50mBJxn$YuuKBt',#5,$,$,#16,(#17));
#21=IFCRELAGGREGATES('22CTfybJ53BgxnEymsueh4',#5,$,$,#17,(#18));
#30=IFCCARTESIANPOINT((0.000000,0.000000,-0.220000));
#31=IFCAXIS2PLACEMENT3D(#30,#8,#6);
#32=IFCLOCALPLACEMENT(#15,#31);
#33=IFCCARTESIANPOINT((0.,0.));
#34=IFCAXIS2PLACEMENT2D(#33,$);
#35=IFCRECTANGLEPROFILEDEF(.AREA.,$,#34,16.000000,12.000000);
#36=IFCEXTRUDEDAREASOLID(#35,#10,#8,0.220000);
#37=IFCSHAPEREPRESENTATION(#11,'Body','SweptSolid',(#36));
#38=IFCPRODUCTDEFINITIONSHAPE($,$,(#37));
#39=IFCSLAB('3FCHiEisD0LvKyf6k3EeRU',#5,'Mechanical Room Floor',$,$,#32,#38,'Mechanical Room Floor',.FLOOR.);
#40=IFCCARTESIANPOINT((0.000000,-6.000000,0.000000));
#41=IFCAXIS2PLACEMENT3D(#40,#8,#6);
#42=IFCLOCALPLACEMENT(#15,#41);
#43=IFCCARTESIANPOINT((0.,0.));
#44=IFCAXIS2PLACEMENT2D(#43,$);
#45=IFCRECTANGLEPROFILEDEF(.AREA.,$,#44,16.000000,0.220000);
#46=IFCEXTRUDEDAREASOLID(#45,#10,#8,3.200000);
#47=IFCSHAPEREPRESENTATION(#11,'Body','SweptSolid',(#46));
#48=IFCPRODUCTDEFINITIONSHAPE($,$,(#47));
#49=IFCWALL('0XScmhN_9BxPSTloBaii25',#5,'North Wall',$,$,#42,#48,'North Wall');
#50=IFCCARTESIANPOINT((-8.000000,0.000000,0.000000));
#51=IFCAXIS2PLACEMENT3D(#50,#8,#6);
#52=IFCLOCALPLACEMENT(#15,#51);
#53=IFCCARTESIANPOINT((0.,0.));
#54=IFCAXIS2PLACEMENT2D(#53,$);
#55=IFCRECTANGLEPROFILEDEF(.AREA.,$,#54,0.220000,12.000000);
#56=IFCEXTRUDEDAREASOLID(#55,#10,#8,3.200000);
#57=IFCSHAPEREPRESENTATION(#11,'Body','SweptSolid',(#56));
#58=IFCPRODUCTDEFINITIONSHAPE($,$,(#57));
#59=IFCWALL('2nmVNQ$DL5zRx4aa1l22MA',#5,'West Wall',$,$,#52,#58,'West Wall');
#60=IFCCARTESIANPOINT((8.000000,0.000000,0.000000));
#61=IFCAXIS2PLACEMENT3D(#60,#8,#6);
#62=IFCLOCALPLACEMENT(#15,#61);
#63=IFCCARTESIANPOINT((0.,0.));
#64=IFCAXIS2PLACEMENT2D(#63,$);
#65=IFCRECTANGLEPROFILEDEF(.AREA.,$,#64,0.220000,12.000000);
#66=IFCEXTRUDEDAREASOLID(#65,#10,#8,3.200000);
#67=IFCSHAPEREPRESENTATION(#11,'Body','SweptSolid',(#66));
#68=IFCPRODUCTDEFINITIONSHAPE($,$,(#67));
#69=IFCWALL('1Dl5RqPAf9PuAy1UFFgkDU',#5,'East Wall',$,$,#62,#68,'East Wall');
#70=IFCCARTESIANPOINT((0.000000,6.000000,0.000000));
#71=IFCAXIS2PLACEMENT3D(#70,#8,#6);
#72=IFCLOCALPLACEMENT(#15,#71);
#73=IFCCARTESIANPOINT((0.,0.));
#74=IFCAXIS2PLACEMENT2D(#73,$);
#75=IFCRECTANGLEPROFILEDEF(.AREA.,$,#74,16.000000,0.220000);
#76=IFCEXTRUDEDAREASOLID(#75,#10,#8,3.200000);
#77=IFCSHAPEREPRESENTATION(#11,'Body','SweptSolid',(#76));
#78=IFCPRODUCTDEFINITIONSHAPE($,$,(#77));
#79=IFCWALL('2wyhZBQ5P2N8eljWRKL6p2',#5,'South Wall',$,$,#72,#78,'South Wall');
#80=IFCCARTESIANPOINT((-7.450000,-5.550000,0.000000));
#81=IFCAXIS2PLACEMENT3D(#80,#8,#6);
#82=IFCLOCALPLACEMENT(#15,#81);
#83=IFCCARTESIANPOINT((0.,0.));
#84=IFCAXIS2PLACEMENT2D(#83,$);
#85=IFCRECTANGLEPROFILEDEF(.AREA.,$,#84,0.450000,0.450000);
#86=IFCEXTRUDEDAREASOLID(#85,#10,#8,3.200000);
#87=IFCSHAPEREPRESENTATION(#11,'Body','SweptSolid',(#86));
#88=IFCPRODUCTDEFINITIONSHAPE($,$,(#87));
#89=IFCCOLUMN('27tD06vev93QpgUGjUDvxJ',#5,'Structural Column C01',$,$,#82,#88,'Structural Column C01');
#90=IFCCARTESIANPOINT((-0.600000,-5.550000,0.000000));
#91=IFCAXIS2PLACEMENT3D(#90,#8,#6);
#92=IFCLOCALPLACEMENT(#15,#91);
#93=IFCCARTESIANPOINT((0.,0.));
#94=IFCAXIS2PLACEMENT2D(#93,$);
#95=IFCRECTANGLEPROFILEDEF(.AREA.,$,#94,0.450000,0.450000);
#96=IFCEXTRUDEDAREASOLID(#95,#10,#8,3.200000);
#97=IFCSHAPEREPRESENTATION(#11,'Body','SweptSolid',(#96));
#98=IFCPRODUCTDEFINITIONSHAPE($,$,(#97));
#99=IFCCOLUMN('1VQV5G2n92DBx7oiQhi4$f',#5,'Structural Column C02',$,$,#92,#98,'Structural Column C02');
#100=IFCCARTESIANPOINT((5.800000,-5.550000,0.000000));
#101=IFCAXIS2PLACEMENT3D(#100,#8,#6);
#102=IFCLOCALPLACEMENT(#15,#101);
#103=IFCCARTESIANPOINT((0.,0.));
#104=IFCAXIS2PLACEMENT2D(#103,$);
#105=IFCRECTANGLEPROFILEDEF(.AREA.,$,#104,0.450000,0.450000);
#106=IFCEXTRUDEDAREASOLID(#105,#10,#8,3.200000);
#107=IFCSHAPEREPRESENTATION(#11,'Body','SweptSolid',(#106));
#108=IFCPRODUCTDEFINITIONSHAPE($,$,(#107));
#109=IFCCOLUMN('0CIXvIgjD4KQwS8$1gAYti',#5,'Structural Column C03',$,$,#102,#108,'Structural Column C03');
#110=IFCCARTESIANPOINT((-7.450000,5.550000,0.000000));
#111=IFCAXIS2PLACEMENT3D(#110,#8,#6);
#112=IFCLOCALPLACEMENT(#15,#111);
#113=IFCCARTESIANPOINT((0.,0.));
#114=IFCAXIS2PLACEMENT2D(#113,$);
#115=IFCRECTANGLEPROFILEDEF(.AREA.,$,#114,0.450000,0.450000);
#116=IFCEXTRUDEDAREASOLID(#115,#10,#8,3.200000);
#117=IFCSHAPEREPRESENTATION(#11,'Body','SweptSolid',(#116));
#118=IFCPRODUCTDEFINITIONSHAPE($,$,(#117));
#119=IFCCOLUMN('2mVNXXyFr8HQL42iROePSN',#5,'Structural Column C04',$,$,#112,#118,'Structural Column C04');
#120=IFCCARTESIANPOINT((-0.600000,5.550000,0.000000));
#121=IFCAXIS2PLACEMENT3D(#120,#8,#6);
#122=IFCLOCALPLACEMENT(#15,#121);
#123=IFCCARTESIANPOINT((0.,0.));
#124=IFCAXIS2PLACEMENT2D(#123,$);
#125=IFCRECTANGLEPROFILEDEF(.AREA.,$,#124,0.450000,0.450000);
#126=IFCEXTRUDEDAREASOLID(#125,#10,#8,3.200000);
#127=IFCSHAPEREPRESENTATION(#11,'Body','SweptSolid',(#126));
#128=IFCPRODUCTDEFINITIONSHAPE($,$,(#127));
#129=IFCCOLUMN('34_RYFnvDEdRFacVM5ldVt',#5,'Structural Column C05',$,$,#122,#128,'Structural Column C05');
#130=IFCCARTESIANPOINT((5.800000,5.550000,0.000000));
#131=IFCAXIS2PLACEMENT3D(#130,#8,#6);
#132=IFCLOCALPLACEMENT(#15,#131);
#133=IFCCARTESIANPOINT((0.,0.));
#134=IFCAXIS2PLACEMENT2D(#133,$);
#135=IFCRECTANGLEPROFILEDEF(.AREA.,$,#134,0.450000,0.450000);
#136=IFCEXTRUDEDAREASOLID(#135,#10,#8,3.200000);
#137=IFCSHAPEREPRESENTATION(#11,'Body','SweptSolid',(#136));
#138=IFCPRODUCTDEFINITIONSHAPE($,$,(#137));
#139=IFCCOLUMN('0ejmB7bZz3TOxUTrwW87gQ',#5,'Structural Column C06',$,$,#132,#138,'Structural Column C06');
#140=IFCCARTESIANPOINT((2.000000,-2.150000,0.000000));
#141=IFCAXIS2PLACEMENT3D(#140,#8,#6);
#142=IFCLOCALPLACEMENT(#15,#141);
#143=IFCCARTESIANPOINT((0.,0.));
#144=IFCAXIS2PLACEMENT2D(#143,$);
#145=IFCRECTANGLEPROFILEDEF(.AREA.,$,#144,3.000000,1.350000);
#146=IFCEXTRUDEDAREASOLID(#145,#10,#8,1.440000);
#147=IFCSHAPEREPRESENTATION(#11,'Body','SweptSolid',(#146));
#148=IFCPRODUCTDEFINITIONSHAPE($,$,(#147));
#149=IFCPUMP('38EaM9wWb0VfnqPfzCV5pU',#5,'P-401 Proposed Replacement',$,$,#142,#148,'P-401 Proposed Replacement',.USERDEFINED.);
#150=IFCCARTESIANPOINT((2.000000,2.150000,0.000000));
#151=IFCAXIS2PLACEMENT3D(#150,#8,#6);
#152=IFCLOCALPLACEMENT(#15,#151);
#153=IFCCARTESIANPOINT((0.,0.));
#154=IFCAXIS2PLACEMENT2D(#153,$);
#155=IFCRECTANGLEPROFILEDEF(.AREA.,$,#154,3.000000,1.350000);
#156=IFCEXTRUDEDAREASOLID(#155,#10,#8,1.440000);
#157=IFCSHAPEREPRESENTATION(#11,'Body','SweptSolid',(#156));
#158=IFCPRODUCTDEFINITIONSHAPE($,$,(#157));
#159=IFCPUMP('33ouiZGNr83weCilf66fPl',#5,'P-402 Existing Duty Pump',$,$,#152,#158,'P-402 Existing Duty Pump',.USERDEFINED.);
#160=IFCRELCONTAINEDINSPATIALSTRUCTURE('2Ak7OehVL8z9DWpYd_3UAq',#5,$,$,(#39,#49,#59,#69,#79,#89,#99,#109,#119,#129,#139,#149,#159),#18);
#161=IFCPROPERTYSINGLEVALUE('DajoongSceneDigest',$,IFCTEXT('cc9fcc78d16190347564ddb6166d20478f193dbbc87713ff992a3da2669aec1b'),$);
#162=IFCPROPERTYSET('0WMPZerGn6$RU4_uXfKUu2',#5,'Pset_BuildCrewProvenance',$,(#161));
#163=IFCRELDEFINESBYPROPERTIES('0uH$edWbf1OgdEElEheskO',#5,$,$,(#39,#49,#59,#69,#79,#89,#99,#109,#119,#129,#139,#149,#159),#162);
ENDSEC;
END-ISO-10303-21;